<svg width="20" height="21" viewBox="0 0 20 21" fill="none" xmlns="http://www.w3.org/2000/svg">
<circle cx="10" cy="10.5" r="10" transform="rotate(-180 10 10.5)" fill="black"/>
<g clip-path="url(#clip0_107_111)">
<path d="M12.352 10.5L8.10604 14.8635C8.07108 14.8987 8.04344 14.9405 8.02472 14.9864C8.00601 15.0323 7.99658 15.0815 7.99699 15.131C7.99741 15.1806 8.00765 15.2296 8.02712 15.2752C8.0466 15.3208 8.07493 15.3621 8.11047 15.3967C8.146 15.4313 8.18804 15.4585 8.23416 15.4767C8.28027 15.4949 8.32954 15.5038 8.37912 15.5029C8.42869 15.5019 8.47759 15.4912 8.52298 15.4712C8.56836 15.4512 8.60934 15.4225 8.64354 15.3865L13.1435 10.7615C13.2116 10.6915 13.2498 10.5977 13.2498 10.5C13.2498 10.4024 13.2116 10.3086 13.1435 10.2385L8.64354 5.61355C8.60934 5.57764 8.56836 5.54887 8.52298 5.52891C8.47759 5.50894 8.4287 5.49817 8.37912 5.49723C8.32954 5.49629 8.28027 5.50518 8.23416 5.52341C8.18805 5.54163 8.146 5.56882 8.11047 5.6034C8.07493 5.63797 8.0466 5.67926 8.02712 5.72486C8.00765 5.77046 7.99741 5.81946 7.99699 5.86905C7.99658 5.91863 8.00601 5.9678 8.02472 6.01372C8.04344 6.05963 8.07108 6.10138 8.10604 6.13655L12.352 10.5Z" fill="white"/>
</g>
<defs>
<clipPath id="clip0_107_111">
<rect width="6" height="11" fill="white" transform="translate(13.5 16) rotate(-180)"/>
</clipPath>
</defs>
</svg>
