<svg width="25" height="25" viewBox="0 0 25 25" fill="none" xmlns="http://www.w3.org/2000/svg">
<circle cx="12.5" cy="12.5" r="12.5" transform="rotate(-180 12.5 12.5)" fill="white"/>
<g clip-path="url(#clip0_107_76)">
<path d="M15.4399 12.5001L10.1324 17.9544C10.0887 17.9984 10.0541 18.0506 10.0307 18.108C10.0073 18.1654 9.99554 18.2268 9.99606 18.2888C9.99657 18.3508 10.0094 18.412 10.0337 18.469C10.0581 18.526 10.0935 18.5776 10.1379 18.6209C10.1823 18.6641 10.2349 18.6981 10.2925 18.7209C10.3502 18.7436 10.4117 18.7548 10.4737 18.7536C10.5357 18.7524 10.5968 18.7389 10.6535 18.714C10.7103 18.689 10.7615 18.6531 10.8042 18.6082L16.4292 12.8269C16.5144 12.7394 16.562 12.6221 16.562 12.5001C16.562 12.378 16.5144 12.2607 16.4292 12.1732L10.8042 6.39193C10.7615 6.34705 10.7103 6.31109 10.6535 6.28613C10.5968 6.26117 10.5357 6.24772 10.4737 6.24654C10.4117 6.24536 10.3502 6.25648 10.2925 6.27926C10.2349 6.30204 10.1823 6.33602 10.1379 6.37925C10.0935 6.42247 10.0581 6.47407 10.0337 6.53107C10.0094 6.58807 9.99657 6.64933 9.99606 6.71131C9.99554 6.77329 10.0073 6.83475 10.0307 6.89215C10.0541 6.94954 10.0887 7.00173 10.1324 7.04568L15.4399 12.5001Z" fill="black"/>
</g>
<defs>
<clipPath id="clip0_107_76">
<rect width="7.5" height="13.75" fill="white" transform="translate(16.875 19.375) rotate(-180)"/>
</clipPath>
</defs>
</svg>
